<svg xmlns="http://www.w3.org/2000/svg" xmlns:xlink="http://www.w3.org/1999/xlink" width="187" zoomAndPan="magnify" viewBox="0 0 140.25 44.999999" height="60" preserveAspectRatio="xMidYMid meet" version="1.0"><defs><g/><clipPath id="b46634e970"><path d="M 3.039062 3.714844 L 135.066406 3.714844 L 135.066406 40.269531 L 3.039062 40.269531 Z M 3.039062 3.714844 " clip-rule="nonzero"/></clipPath></defs><g clip-path="url(#b46634e970)"><path stroke-linecap="butt" transform="matrix(0.74634, 0, 0, 0.743403, 3.040538, 3.713116)" fill="none" stroke-linejoin="miter" d="M -0.001977 0.00232427 L 176.89777 0.00232427 L 176.89777 49.17443 L -0.001977 49.17443 L -0.001977 0.00232427 " stroke="#060606" stroke-width="2" stroke-opacity="1" stroke-miterlimit="4"/></g><g fill="#060606" fill-opacity="1"><g transform="translate(39.982096, 25.305003)"><g><path d="M 5.109375 -10.546875 C 7.046875 -10.546875 8.492188 -10.109375 9.453125 -9.234375 C 10.421875 -8.359375 10.90625 -7.078125 10.90625 -5.390625 C 10.90625 -4.304688 10.671875 -3.359375 10.203125 -2.546875 C 9.734375 -1.742188 9.050781 -1.117188 8.15625 -0.671875 C 7.269531 -0.222656 6.210938 0 4.984375 0 L 4.046875 -0.015625 C 3.472656 -0.0351562 3.054688 -0.046875 2.796875 -0.046875 C 1.773438 -0.046875 1.007812 -0.03125 0.5 0 L 0.5 -0.296875 C 0.832031 -0.316406 1.070312 -0.351562 1.21875 -0.40625 C 1.375 -0.46875 1.476562 -0.582031 1.53125 -0.75 C 1.59375 -0.925781 1.625 -1.203125 1.625 -1.578125 L 1.625 -8.96875 C 1.625 -9.351562 1.59375 -9.628906 1.53125 -9.796875 C 1.476562 -9.960938 1.375 -10.070312 1.21875 -10.125 C 1.070312 -10.1875 0.832031 -10.226562 0.5 -10.25 L 0.5 -10.546875 C 0.925781 -10.523438 1.53125 -10.515625 2.3125 -10.515625 L 2.765625 -10.515625 L 3.375 -10.53125 C 4.1875 -10.539062 4.765625 -10.546875 5.109375 -10.546875 Z M 5.09375 -10.28125 C 4.789062 -10.28125 4.5625 -10.242188 4.40625 -10.171875 C 4.25 -10.109375 4.140625 -9.988281 4.078125 -9.8125 C 4.023438 -9.632812 4 -9.363281 4 -9 L 4 -1.546875 C 4 -1.191406 4.023438 -0.925781 4.078125 -0.75 C 4.140625 -0.570312 4.25 -0.445312 4.40625 -0.375 C 4.5625 -0.300781 4.796875 -0.265625 5.109375 -0.265625 C 6.316406 -0.265625 7.171875 -0.679688 7.671875 -1.515625 C 8.179688 -2.359375 8.4375 -3.632812 8.4375 -5.34375 C 8.4375 -7.039062 8.175781 -8.285156 7.65625 -9.078125 C 7.132812 -9.878906 6.28125 -10.28125 5.09375 -10.28125 Z M 5.09375 -10.28125 "/></g></g></g><g fill="#060606" fill-opacity="1"><g transform="translate(51.103601, 25.305003)"><g><path d="M 4.734375 -1.015625 C 5.554688 -1.015625 6.210938 -1.410156 6.703125 -2.203125 L 6.96875 -2.109375 C 6.769531 -1.460938 6.414062 -0.914062 5.90625 -0.46875 C 5.394531 -0.0195312 4.757812 0.203125 4 0.203125 C 2.945312 0.203125 2.109375 -0.128906 1.484375 -0.796875 C 0.859375 -1.460938 0.546875 -2.453125 0.546875 -3.765625 C 0.546875 -5.109375 0.878906 -6.132812 1.546875 -6.84375 C 2.210938 -7.5625 3.097656 -7.921875 4.203125 -7.921875 C 6.066406 -7.921875 7 -6.816406 7 -4.609375 L 2.8125 -4.609375 C 2.800781 -4.453125 2.796875 -4.21875 2.796875 -3.90625 C 2.796875 -3.25 2.890625 -2.703125 3.078125 -2.265625 C 3.265625 -1.828125 3.503906 -1.507812 3.796875 -1.3125 C 4.085938 -1.113281 4.398438 -1.015625 4.734375 -1.015625 Z M 4.109375 -7.609375 C 3.753906 -7.609375 3.457031 -7.382812 3.21875 -6.9375 C 2.988281 -6.5 2.84375 -5.816406 2.78125 -4.890625 L 5.125 -4.890625 C 5.144531 -5.671875 5.066406 -6.316406 4.890625 -6.828125 C 4.722656 -7.347656 4.460938 -7.609375 4.109375 -7.609375 Z M 4.109375 -7.609375 "/></g></g></g><g fill="#060606" fill-opacity="1"><g transform="translate(58.169948, 25.305003)"><g><path d="M 4.234375 -7.921875 C 4.597656 -7.921875 4.941406 -7.878906 5.265625 -7.796875 C 5.597656 -7.710938 5.875 -7.601562 6.09375 -7.46875 C 6.351562 -7.3125 6.554688 -7.109375 6.703125 -6.859375 C 6.847656 -6.617188 6.921875 -6.351562 6.921875 -6.0625 C 6.921875 -5.71875 6.8125 -5.429688 6.59375 -5.203125 C 6.375 -4.984375 6.085938 -4.875 5.734375 -4.875 C 5.390625 -4.875 5.113281 -4.972656 4.90625 -5.171875 C 4.695312 -5.367188 4.59375 -5.640625 4.59375 -5.984375 C 4.59375 -6.273438 4.6875 -6.53125 4.875 -6.75 C 5.0625 -6.96875 5.296875 -7.117188 5.578125 -7.203125 C 5.492188 -7.304688 5.367188 -7.390625 5.203125 -7.453125 C 5.046875 -7.523438 4.875 -7.5625 4.6875 -7.5625 C 4.082031 -7.5625 3.613281 -7.234375 3.28125 -6.578125 C 2.945312 -5.929688 2.78125 -5.082031 2.78125 -4.03125 C 2.78125 -2.96875 2.96875 -2.203125 3.34375 -1.734375 C 3.726562 -1.265625 4.203125 -1.03125 4.765625 -1.03125 C 5.109375 -1.03125 5.453125 -1.117188 5.796875 -1.296875 C 6.140625 -1.472656 6.445312 -1.785156 6.71875 -2.234375 L 6.96875 -2.140625 C 6.769531 -1.492188 6.421875 -0.941406 5.921875 -0.484375 C 5.429688 -0.0234375 4.796875 0.203125 4.015625 0.203125 C 2.984375 0.203125 2.144531 -0.128906 1.5 -0.796875 C 0.851562 -1.472656 0.53125 -2.476562 0.53125 -3.8125 C 0.53125 -4.6875 0.6875 -5.429688 1 -6.046875 C 1.320312 -6.660156 1.757812 -7.125 2.3125 -7.4375 C 2.875 -7.757812 3.515625 -7.921875 4.234375 -7.921875 Z M 4.234375 -7.921875 "/></g></g></g><g fill="#060606" fill-opacity="1"><g transform="translate(65.117034, 25.305003)"><g><path d="M 3.40625 -1.390625 C 3.40625 -0.984375 3.472656 -0.703125 3.609375 -0.546875 C 3.742188 -0.390625 3.992188 -0.3125 4.359375 -0.3125 L 4.359375 0 C 3.316406 -0.0390625 2.648438 -0.0625 2.359375 -0.0625 C 2.015625 -0.0625 1.328125 -0.0390625 0.296875 0 L 0.296875 -0.3125 C 0.640625 -0.3125 0.882812 -0.390625 1.03125 -0.546875 C 1.175781 -0.703125 1.25 -0.984375 1.25 -1.390625 L 1.25 -9.875 C 1.25 -10.332031 1.175781 -10.664062 1.03125 -10.875 C 0.882812 -11.082031 0.640625 -11.1875 0.296875 -11.1875 L 0.296875 -11.5 C 0.617188 -11.476562 0.925781 -11.46875 1.21875 -11.46875 C 2.082031 -11.46875 2.8125 -11.535156 3.40625 -11.671875 Z M 3.40625 -1.390625 "/></g></g></g><g fill="#060606" fill-opacity="1"><g transform="translate(69.306021, 25.305003)"><g><path d="M 4.203125 -7.921875 C 5.347656 -7.921875 6.242188 -7.59375 6.890625 -6.9375 C 7.535156 -6.289062 7.859375 -5.257812 7.859375 -3.84375 C 7.859375 -2.4375 7.535156 -1.410156 6.890625 -0.765625 C 6.242188 -0.117188 5.347656 0.203125 4.203125 0.203125 C 3.066406 0.203125 2.171875 -0.117188 1.515625 -0.765625 C 0.867188 -1.410156 0.546875 -2.4375 0.546875 -3.84375 C 0.546875 -5.257812 0.867188 -6.289062 1.515625 -6.9375 C 2.171875 -7.59375 3.066406 -7.921875 4.203125 -7.921875 Z M 4.203125 -7.609375 C 3.773438 -7.609375 3.429688 -7.296875 3.171875 -6.671875 C 2.921875 -6.054688 2.796875 -5.113281 2.796875 -3.84375 C 2.796875 -2.570312 2.921875 -1.628906 3.171875 -1.015625 C 3.429688 -0.398438 3.773438 -0.09375 4.203125 -0.09375 C 4.640625 -0.09375 4.984375 -0.394531 5.234375 -1 C 5.484375 -1.613281 5.609375 -2.5625 5.609375 -3.84375 C 5.609375 -5.125 5.476562 -6.070312 5.21875 -6.6875 C 4.96875 -7.300781 4.628906 -7.609375 4.203125 -7.609375 Z M 4.203125 -7.609375 "/></g></g></g><g fill="#060606" fill-opacity="1"><g transform="translate(77.281796, 25.305003)"><g><path d="M 4.734375 -1.015625 C 5.554688 -1.015625 6.210938 -1.410156 6.703125 -2.203125 L 6.96875 -2.109375 C 6.769531 -1.460938 6.414062 -0.914062 5.90625 -0.46875 C 5.394531 -0.0195312 4.757812 0.203125 4 0.203125 C 2.945312 0.203125 2.109375 -0.128906 1.484375 -0.796875 C 0.859375 -1.460938 0.546875 -2.453125 0.546875 -3.765625 C 0.546875 -5.109375 0.878906 -6.132812 1.546875 -6.84375 C 2.210938 -7.5625 3.097656 -7.921875 4.203125 -7.921875 C 6.066406 -7.921875 7 -6.816406 7 -4.609375 L 2.8125 -4.609375 C 2.800781 -4.453125 2.796875 -4.21875 2.796875 -3.90625 C 2.796875 -3.25 2.890625 -2.703125 3.078125 -2.265625 C 3.265625 -1.828125 3.503906 -1.507812 3.796875 -1.3125 C 4.085938 -1.113281 4.398438 -1.015625 4.734375 -1.015625 Z M 4.109375 -7.609375 C 3.753906 -7.609375 3.457031 -7.382812 3.21875 -6.9375 C 2.988281 -6.5 2.84375 -5.816406 2.78125 -4.890625 L 5.125 -4.890625 C 5.144531 -5.671875 5.066406 -6.316406 4.890625 -6.828125 C 4.722656 -7.347656 4.460938 -7.609375 4.109375 -7.609375 Z M 4.109375 -7.609375 "/></g></g></g><g fill="#060606" fill-opacity="1"><g transform="translate(84.348142, 25.305003)"><g><path d="M 7.6875 -1.640625 C 7.6875 -1.179688 7.753906 -0.847656 7.890625 -0.640625 C 8.035156 -0.429688 8.285156 -0.328125 8.640625 -0.328125 L 8.640625 -0.015625 C 8.335938 -0.046875 8.03125 -0.0625 7.71875 -0.0625 C 6.832031 -0.0625 6.109375 0.0078125 5.546875 0.15625 L 5.546875 -1.140625 C 5.203125 -0.242188 4.554688 0.203125 3.609375 0.203125 C 2.671875 0.203125 1.925781 -0.132812 1.375 -0.8125 C 0.820312 -1.488281 0.550781 -2.515625 0.5625 -3.890625 C 0.5625 -4.765625 0.703125 -5.5 0.984375 -6.09375 C 1.273438 -6.695312 1.671875 -7.148438 2.171875 -7.453125 C 2.671875 -7.765625 3.242188 -7.921875 3.890625 -7.921875 C 4.617188 -7.921875 5.171875 -7.726562 5.546875 -7.34375 L 5.546875 -9.875 C 5.546875 -10.332031 5.472656 -10.664062 5.328125 -10.875 C 5.179688 -11.082031 4.9375 -11.1875 4.59375 -11.1875 L 4.59375 -11.5 C 4.90625 -11.476562 5.210938 -11.46875 5.515625 -11.46875 C 6.378906 -11.46875 7.101562 -11.535156 7.6875 -11.671875 Z M 4.21875 -0.4375 C 4.539062 -0.4375 4.828125 -0.550781 5.078125 -0.78125 C 5.335938 -1.019531 5.492188 -1.347656 5.546875 -1.765625 L 5.546875 -6.96875 C 5.296875 -7.3125 4.929688 -7.484375 4.453125 -7.484375 C 3.929688 -7.484375 3.523438 -7.179688 3.234375 -6.578125 C 2.941406 -5.972656 2.800781 -5.066406 2.8125 -3.859375 C 2.800781 -2.648438 2.914062 -1.773438 3.15625 -1.234375 C 3.40625 -0.703125 3.757812 -0.4375 4.21875 -0.4375 Z M 4.21875 -0.4375 "/></g></g></g><g fill="#060606" fill-opacity="1"><g transform="translate(92.815899, 25.305003)"><g><path d="M 3.390625 -7.703125 L 5.140625 -7.703125 L 5.140625 -7.40625 L 3.390625 -7.40625 L 3.390625 -1.390625 C 3.390625 -1.085938 3.441406 -0.875 3.546875 -0.75 C 3.648438 -0.625 3.816406 -0.5625 4.046875 -0.5625 C 4.472656 -0.5625 4.804688 -0.859375 5.046875 -1.453125 L 5.3125 -1.328125 C 4.925781 -0.304688 4.242188 0.203125 3.265625 0.203125 C 2.609375 0.203125 2.113281 0.0351562 1.78125 -0.296875 C 1.5625 -0.503906 1.414062 -0.765625 1.34375 -1.078125 C 1.269531 -1.390625 1.234375 -1.820312 1.234375 -2.375 L 1.234375 -7.40625 L -0.015625 -7.40625 L -0.015625 -7.703125 L 1.234375 -7.703125 L 1.234375 -9.671875 C 2.054688 -9.671875 2.773438 -9.832031 3.390625 -10.15625 Z M 3.390625 -7.703125 "/></g></g></g><g fill="#060606" fill-opacity="1"><g transform="translate(23.02726, 34.890238)"><g><path d="M 0.5 -3.859375 L 2.09375 -3.859375 C 2.664062 -3.859375 3.140625 -3.675781 3.515625 -3.3125 C 3.898438 -2.945312 4.09375 -2.484375 4.09375 -1.921875 C 4.09375 -1.367188 3.898438 -0.910156 3.515625 -0.546875 C 3.140625 -0.179688 2.660156 0 2.078125 0 L 0.5 0 Z M 1.15625 -3.28125 L 1.15625 -0.578125 L 2.109375 -0.578125 C 2.484375 -0.578125 2.796875 -0.703125 3.046875 -0.953125 C 3.304688 -1.210938 3.4375 -1.535156 3.4375 -1.921875 C 3.4375 -2.316406 3.304688 -2.640625 3.046875 -2.890625 C 2.785156 -3.148438 2.460938 -3.28125 2.078125 -3.28125 Z M 1.15625 -3.28125 "/></g></g></g><g fill="#060606" fill-opacity="1"><g transform="translate(30.328394, 34.890238)"><g><path d="M 1.15625 0 L 0.5 0 L 0.5 -3.859375 L 1.15625 -3.859375 Z M 1.15625 0 "/></g></g></g><g fill="#060606" fill-opacity="1"><g transform="translate(35.023152, 34.890238)"><g><path d="M 3.15625 -1.890625 L 3.71875 -1.890625 L 3.71875 -0.46875 C 3.519531 -0.320312 3.285156 -0.203125 3.015625 -0.109375 C 2.742188 -0.015625 2.476562 0.03125 2.21875 0.03125 C 1.644531 0.03125 1.160156 -0.15625 0.765625 -0.53125 C 0.378906 -0.914062 0.1875 -1.378906 0.1875 -1.921875 C 0.1875 -2.472656 0.382812 -2.9375 0.78125 -3.3125 C 1.175781 -3.6875 1.664062 -3.875 2.25 -3.875 C 2.519531 -3.875 2.785156 -3.820312 3.046875 -3.71875 C 3.316406 -3.625 3.546875 -3.5 3.734375 -3.34375 L 3.375 -2.859375 C 3.050781 -3.148438 2.675781 -3.296875 2.25 -3.296875 C 1.863281 -3.296875 1.53125 -3.160156 1.25 -2.890625 C 0.976562 -2.628906 0.84375 -2.3125 0.84375 -1.9375 C 0.84375 -1.539062 0.976562 -1.210938 1.25 -0.953125 C 1.53125 -0.691406 1.867188 -0.5625 2.265625 -0.5625 C 2.554688 -0.5625 2.851562 -0.648438 3.15625 -0.828125 Z M 3.15625 -1.890625 "/></g></g></g><g fill="#060606" fill-opacity="1"><g transform="translate(42.181022, 34.890238)"><g><path d="M 1.15625 0 L 0.5 0 L 0.5 -3.859375 L 1.15625 -3.859375 Z M 1.15625 0 "/></g></g></g><g fill="#060606" fill-opacity="1"><g transform="translate(46.875779, 34.890238)"><g><path d="M 3.140625 -3.28125 L 1.921875 -3.28125 L 1.921875 0 L 1.265625 0 L 1.265625 -3.28125 L 0.046875 -3.28125 L 0.046875 -3.859375 L 3.140625 -3.859375 Z M 3.140625 -3.28125 "/></g></g></g><g fill="#060606" fill-opacity="1"><g transform="translate(53.09689, 34.890238)"><g><path d="M 3 -0.875 L 1.046875 -0.875 L 0.6875 0 L 0 0 L 1.703125 -3.859375 L 2.375 -3.859375 L 4.0625 0 L 3.375 0 Z M 2.75 -1.453125 L 2.03125 -3.171875 L 1.296875 -1.453125 Z M 2.75 -1.453125 "/></g></g></g><g fill="#060606" fill-opacity="1"><g transform="translate(60.194143, 34.890238)"><g><path d="M 1.15625 -0.59375 L 2.828125 -0.59375 L 2.828125 0 L 0.5 0 L 0.5 -3.859375 L 1.15625 -3.859375 Z M 1.15625 -0.59375 "/></g></g></g><g fill="#060606" fill-opacity="1"><g transform="translate(66.167295, 34.890238)"><g/></g></g><g fill="#060606" fill-opacity="1"><g transform="translate(70.619602, 34.890238)"><g><path d="M 3.09375 -3.28125 L 1.15625 -3.28125 L 1.15625 -2.15625 L 2.90625 -2.15625 L 2.90625 -1.578125 L 1.15625 -1.578125 L 1.15625 0 L 0.5 0 L 0.5 -3.859375 L 3.09375 -3.859375 Z M 3.09375 -3.28125 "/></g></g></g><g fill="#060606" fill-opacity="1"><g transform="translate(76.818677, 34.890238)"><g><path d="M 3 -0.875 L 1.046875 -0.875 L 0.6875 0 L 0 0 L 1.703125 -3.859375 L 2.375 -3.859375 L 4.0625 0 L 3.375 0 Z M 2.75 -1.453125 L 2.03125 -3.171875 L 1.296875 -1.453125 Z M 2.75 -1.453125 "/></g></g></g><g fill="#060606" fill-opacity="1"><g transform="translate(83.915933, 34.890238)"><g><path d="M 2.21875 -3.875 C 2.488281 -3.875 2.753906 -3.820312 3.015625 -3.71875 C 3.273438 -3.613281 3.5 -3.46875 3.6875 -3.28125 L 3.296875 -2.8125 C 3.160156 -2.957031 2.992188 -3.070312 2.796875 -3.15625 C 2.609375 -3.25 2.421875 -3.296875 2.234375 -3.296875 C 1.847656 -3.296875 1.519531 -3.164062 1.25 -2.90625 C 0.976562 -2.644531 0.84375 -2.320312 0.84375 -1.9375 C 0.84375 -1.5625 0.976562 -1.238281 1.25 -0.96875 C 1.519531 -0.707031 1.847656 -0.578125 2.234375 -0.578125 C 2.628906 -0.578125 2.984375 -0.726562 3.296875 -1.03125 L 3.6875 -0.609375 C 3.488281 -0.410156 3.253906 -0.253906 2.984375 -0.140625 C 2.722656 -0.0234375 2.457031 0.03125 2.1875 0.03125 C 1.625 0.03125 1.148438 -0.15625 0.765625 -0.53125 C 0.378906 -0.914062 0.1875 -1.382812 0.1875 -1.9375 C 0.1875 -2.476562 0.378906 -2.9375 0.765625 -3.3125 C 1.160156 -3.6875 1.644531 -3.875 2.21875 -3.875 Z M 2.21875 -3.875 "/></g></g></g><g fill="#060606" fill-opacity="1"><g transform="translate(90.787266, 34.890238)"><g><path d="M 3.140625 -3.28125 L 1.921875 -3.28125 L 1.921875 0 L 1.265625 0 L 1.265625 -3.28125 L 0.046875 -3.28125 L 0.046875 -3.859375 L 3.140625 -3.859375 Z M 3.140625 -3.28125 "/></g></g></g><g fill="#060606" fill-opacity="1"><g transform="translate(97.008381, 34.890238)"><g><path d="M 0.78125 -3.3125 C 1.175781 -3.6875 1.660156 -3.875 2.234375 -3.875 C 2.804688 -3.875 3.289062 -3.6875 3.6875 -3.3125 C 4.082031 -2.9375 4.28125 -2.472656 4.28125 -1.921875 C 4.28125 -1.378906 4.082031 -0.914062 3.6875 -0.53125 C 3.289062 -0.15625 2.804688 0.03125 2.234375 0.03125 C 1.660156 0.03125 1.175781 -0.15625 0.78125 -0.53125 C 0.382812 -0.914062 0.1875 -1.378906 0.1875 -1.921875 C 0.1875 -2.472656 0.382812 -2.9375 0.78125 -3.3125 Z M 2.234375 -3.296875 C 1.859375 -3.296875 1.53125 -3.160156 1.25 -2.890625 C 0.976562 -2.628906 0.84375 -2.304688 0.84375 -1.921875 C 0.84375 -1.546875 0.976562 -1.222656 1.25 -0.953125 C 1.53125 -0.691406 1.859375 -0.5625 2.234375 -0.5625 C 2.617188 -0.5625 2.941406 -0.691406 3.203125 -0.953125 C 3.472656 -1.222656 3.609375 -1.546875 3.609375 -1.921875 C 3.609375 -2.304688 3.472656 -2.628906 3.203125 -2.890625 C 2.941406 -3.160156 2.617188 -3.296875 2.234375 -3.296875 Z M 2.234375 -3.296875 "/></g></g></g><g fill="#060606" fill-opacity="1"><g transform="translate(104.502376, 34.890238)"><g><path d="M 2.953125 0 L 2.25 -1.171875 C 2.207031 -1.160156 2.148438 -1.15625 2.078125 -1.15625 L 1.15625 -1.15625 L 1.15625 0 L 0.5 0 L 0.5 -3.859375 L 2.078125 -3.859375 C 2.566406 -3.859375 2.945312 -3.742188 3.21875 -3.515625 C 3.488281 -3.285156 3.625 -2.960938 3.625 -2.546875 C 3.625 -2.234375 3.554688 -1.96875 3.421875 -1.75 C 3.285156 -1.539062 3.085938 -1.390625 2.828125 -1.296875 L 3.703125 0 Z M 1.15625 -1.75 L 2.078125 -1.75 C 2.703125 -1.75 3.015625 -2.007812 3.015625 -2.53125 C 3.015625 -3.03125 2.703125 -3.28125 2.078125 -3.28125 L 1.15625 -3.28125 Z M 1.15625 -1.75 "/></g></g></g><g fill="#060606" fill-opacity="1"><g transform="translate(111.516975, 34.890238)"><g><path d="M 2.09375 -1.28125 L 2.09375 0 L 1.4375 0 L 1.4375 -1.265625 L 0 -3.859375 L 0.65625 -3.859375 L 1.765625 -1.984375 L 2.84375 -3.859375 L 3.515625 -3.859375 Z M 2.09375 -1.28125 "/></g></g></g></svg>