<svg id="visual" viewBox="0 0 900 100" width="900" height="100" xmlns="http://www.w3.org/2000/svg" xmlns:xlink="http://www.w3.org/1999/xlink" version="1.1"><path d="M0 47L75 39L150 16L225 22L300 49L375 43L450 29L525 11L600 17L675 39L750 16L825 41L900 14L900 101L825 101L750 101L675 101L600 101L525 101L450 101L375 101L300 101L225 101L150 101L75 101L0 101Z" fill="#212121"></path><path d="M0 45L75 47L150 31L225 38L300 33L375 56L450 34L525 42L600 56L675 63L750 34L825 62L900 29L900 101L825 101L750 101L675 101L600 101L525 101L450 101L375 101L300 101L225 101L150 101L75 101L0 101Z" fill="#272729"></path><path d="M0 51L75 58L150 44L225 58L300 64L375 74L450 41L525 43L600 73L675 62L750 66L825 66L900 53L900 101L825 101L750 101L675 101L600 101L525 101L450 101L375 101L300 101L225 101L150 101L75 101L0 101Z" fill="#2d2e32"></path><path d="M0 66L75 63L150 69L225 65L300 56L375 60L450 79L525 64L600 75L675 60L750 77L825 56L900 58L900 101L825 101L750 101L675 101L600 101L525 101L450 101L375 101L300 101L225 101L150 101L75 101L0 101Z" fill="#33353a"></path><path d="M0 92L75 82L150 83L225 88L300 78L375 93L450 73L525 79L600 94L675 81L750 82L825 90L900 82L900 101L825 101L750 101L675 101L600 101L525 101L450 101L375 101L300 101L225 101L150 101L75 101L0 101Z" fill="#3a3c43"></path></svg>