<svg id="visual" viewBox="0 0 1920 100" width="1920" height="100" xmlns="http://www.w3.org/2000/svg" xmlns:xlink="http://www.w3.org/1999/xlink" version="1.1"><path d="M0 50L137 63L274 53L411 63L549 44L686 73L823 55L960 66L1097 68L1234 75L1371 71L1509 61L1646 69L1783 41L1920 43L1920 0L1783 0L1646 0L1509 0L1371 0L1234 0L1097 0L960 0L823 0L686 0L549 0L411 0L274 0L137 0L0 0Z" fill="#3a3c43"></path><path d="M0 41L137 39L274 36L411 56L549 52L686 61L823 40L960 32L1097 32L1234 36L1371 50L1509 52L1646 48L1783 59L1920 51L1920 0L1783 0L1646 0L1509 0L1371 0L1234 0L1097 0L960 0L823 0L686 0L549 0L411 0L274 0L137 0L0 0Z" fill="#33353a"></path><path d="M0 39L137 24L274 48L411 29L549 45L686 34L823 38L960 38L1097 45L1234 37L1371 47L1509 31L1646 25L1783 51L1920 51L1920 0L1783 0L1646 0L1509 0L1371 0L1234 0L1097 0L960 0L823 0L686 0L549 0L411 0L274 0L137 0L0 0Z" fill="#2d2e32"></path><path d="M0 32L137 35L274 36L411 34L549 26L686 23L823 20L960 27L1097 34L1234 36L1371 33L1509 32L1646 34L1783 29L1920 22L1920 0L1783 0L1646 0L1509 0L1371 0L1234 0L1097 0L960 0L823 0L686 0L549 0L411 0L274 0L137 0L0 0Z" fill="#272729"></path><path d="M0 18L137 13L274 12L411 18L549 21L686 17L823 16L960 19L1097 11L1234 23L1371 12L1509 10L1646 17L1783 19L1920 12L1920 0L1783 0L1646 0L1509 0L1371 0L1234 0L1097 0L960 0L823 0L686 0L549 0L411 0L274 0L137 0L0 0Z" fill="#212121"></path></svg>