<svg id="visual" viewBox="0 0 1920 60" width="1920" height="60" xmlns="http://www.w3.org/2000/svg" xmlns:xlink="http://www.w3.org/1999/xlink" version="1.1"><path d="M0 35L40 39C80 43 160 51 240 53.3C320 55.7 400 52.3 480 50.3C560 48.3 640 47.7 720 44.7C800 41.7 880 36.3 960 36.8C1040 37.3 1120 43.7 1200 47.8C1280 52 1360 54 1440 49.7C1520 45.3 1600 34.7 1680 31.3C1760 28 1840 32 1880 34L1920 36L1920 61L1880 61C1840 61 1760 61 1680 61C1600 61 1520 61 1440 61C1360 61 1280 61 1200 61C1120 61 1040 61 960 61C880 61 800 61 720 61C640 61 560 61 480 61C400 61 320 61 240 61C160 61 80 61 40 61L0 61Z" fill="#212121" stroke-linecap="round" stroke-linejoin="miter"></path></svg>