<svg id="visual" viewBox="0 0 1920 60" width="1920" height="60" xmlns="http://www.w3.org/2000/svg" xmlns:xlink="http://www.w3.org/1999/xlink" version="1.1"><path d="M0 23L40 19.2C80 15.3 160 7.7 240 5.3C320 3 400 6 480 7.8C560 9.7 640 10.3 720 13.3C800 16.3 880 21.7 960 21.2C1040 20.7 1120 14.3 1200 10.2C1280 6 1360 4 1440 8.3C1520 12.7 1600 23.3 1680 26.7C1760 30 1840 26 1880 24L1920 22L1920 0L1880 0C1840 0 1760 0 1680 0C1600 0 1520 0 1440 0C1360 0 1280 0 1200 0C1120 0 1040 0 960 0C880 0 800 0 720 0C640 0 560 0 480 0C400 0 320 0 240 0C160 0 80 0 40 0L0 0Z" fill="#212121" stroke-linecap="round" stroke-linejoin="miter"></path></svg>