<svg id="visual" viewBox="0 0 1920 60" width="1920" height="60" xmlns="http://www.w3.org/2000/svg" xmlns:xlink="http://www.w3.org/1999/xlink" version="1.1"><path d="M0 43L29.2 39.3C58.3 35.7 116.7 28.3 174.8 29.3C233 30.3 291 39.7 349.2 40.2C407.3 40.7 465.7 32.3 523.8 32.5C582 32.7 640 41.3 698.2 40C756.3 38.7 814.7 27.3 872.8 19C931 10.7 989 5.3 1047.2 7.8C1105.3 10.3 1163.7 20.7 1221.8 28.7C1280 36.7 1338 42.3 1396.2 42.3C1454.3 42.3 1512.7 36.7 1570.8 37.5C1629 38.3 1687 45.7 1745.2 41.7C1803.3 37.7 1861.7 22.3 1890.8 14.7L1920 7L1920 0L1890.8 0C1861.7 0 1803.3 0 1745.2 0C1687 0 1629 0 1570.8 0C1512.7 0 1454.3 0 1396.2 0C1338 0 1280 0 1221.8 0C1163.7 0 1105.3 0 1047.2 0C989 0 931 0 872.8 0C814.7 0 756.3 0 698.2 0C640 0 582 0 523.8 0C465.7 0 407.3 0 349.2 0C291 0 233 0 174.8 0C116.7 0 58.3 0 29.2 0L0 0Z" fill="#212121" stroke-linecap="round" stroke-linejoin="miter"></path></svg>