<svg id="visual" viewBox="0 0 1920 60" width="1920" height="60" xmlns="http://www.w3.org/2000/svg" xmlns:xlink="http://www.w3.org/1999/xlink" version="1.1"><path d="M0 35L29.2 32.8C58.3 30.7 116.7 26.3 174.8 23.5C233 20.7 291 19.3 349.2 24.2C407.3 29 465.7 40 523.8 46.2C582 52.3 640 53.7 698.2 52.8C756.3 52 814.7 49 872.8 41.7C931 34.3 989 22.7 1047.2 20.8C1105.3 19 1163.7 27 1221.8 33.2C1280 39.3 1338 43.7 1396.2 41C1454.3 38.3 1512.7 28.7 1570.8 27.8C1629 27 1687 35 1745.2 40.7C1803.3 46.3 1861.7 49.7 1890.8 51.3L1920 53L1920 61L1890.8 61C1861.7 61 1803.3 61 1745.2 61C1687 61 1629 61 1570.8 61C1512.7 61 1454.3 61 1396.2 61C1338 61 1280 61 1221.8 61C1163.7 61 1105.3 61 1047.2 61C989 61 931 61 872.8 61C814.7 61 756.3 61 698.2 61C640 61 582 61 523.8 61C465.7 61 407.3 61 349.2 61C291 61 233 61 174.8 61C116.7 61 58.3 61 29.2 61L0 61Z" fill="#212121" stroke-linecap="round" stroke-linejoin="miter"></path></svg>